<svg width="583" height="121" viewBox="0 0 583 121" fill="none" xmlns="http://www.w3.org/2000/svg">
<path d="M52.224 92.8014C35.328 92.8014 22.4 88.9187 13.44 81.1534C4.48 73.3027 0 61.6974 0 46.3374C0 31.0627 4.48 19.5 13.44 11.6494C22.4 3.79871 35.328 -0.0839559 52.224 0.00137631L98.304 0.257373V16.6414H53.632C42.5387 16.6414 34.304 18.988 28.928 23.6814C23.552 28.3747 20.864 35.9267 20.864 46.3374C20.864 56.748 23.552 64.3427 28.928 69.1214C34.304 73.8147 42.5387 76.1614 53.632 76.1614H99.584V92.8014H52.224Z" fill="white"/>
<path d="M127.986 92.1614C121.074 92.1614 115.783 90.412 112.114 86.9134C108.445 83.4147 106.61 78.4227 106.61 71.9374C106.61 65.5374 108.445 60.588 112.114 57.0894C115.783 53.5907 121.074 51.8414 127.986 51.8414H177.138V48.7694C177.138 43.564 174.578 40.9614 169.458 40.9614H115.186V26.2414H174.322C182.087 26.2414 187.591 28.0334 190.834 31.6174C194.077 35.116 195.698 40.0654 195.698 46.4654V92.1614H127.986ZM131.314 77.4414H177.138V66.5614H131.314C129.693 66.5614 128.413 67.0734 127.474 68.0974C126.621 69.036 126.194 70.316 126.194 71.9374C126.194 73.5587 126.621 74.8814 127.474 75.9054C128.413 76.9294 129.693 77.4414 131.314 77.4414Z" fill="white"/>
<path d="M207.649 92.8014V78.0814H270.369C273.953 78.0814 275.745 76.076 275.745 72.0654C275.745 68.14 273.953 66.1774 270.369 66.1774H229.793C222.198 66.1774 216.438 64.4707 212.513 61.0574C208.588 57.5587 206.625 52.5667 206.625 46.0814C206.625 39.5107 208.588 34.476 212.513 30.9774C216.524 27.3934 222.284 25.6014 229.793 25.6014H288.161V40.3214H230.689C227.02 40.3214 225.185 42.1134 225.185 45.6974C225.185 47.4894 225.697 48.8974 226.721 49.9214C227.745 50.9454 229.068 51.4574 230.689 51.4574H273.697C280.353 51.4574 285.43 53.2067 288.929 56.7054C292.513 60.1187 294.305 65.1107 294.305 71.6814C294.305 78.3374 292.513 83.5427 288.929 87.2974C285.345 90.9667 280.268 92.8014 273.697 92.8014H207.649Z" fill="white"/>
<path d="M305.2 92.1614V0.641376H323.76V26.2414H362.672C370.181 26.2414 375.643 28.1187 379.056 31.8734C382.555 35.5427 384.304 40.4067 384.304 46.4654V92.1614H365.744V48.6414C365.744 43.5214 363.184 40.9614 358.064 40.9614H323.76V92.1614H305.2Z" fill="white"/>
<path d="M397.7 92.1614V26.2414H416.26V92.1614H397.7ZM397.572 15.3614V0.897372H416.388V15.3614H397.572Z" fill="white"/>
<path d="M444.917 92.1614V40.9614H425.845V26.2414H444.917V21.1214C444.917 15.0627 446.666 10.1987 450.165 6.52938C453.664 2.77471 459.125 0.897372 466.549 0.897372H494.453V15.6174H471.157C466.037 15.6174 463.477 18.22 463.477 23.4254V26.2414H490.869V40.9614H463.477V92.1614H444.917Z" fill="white"/>
<path d="M517.673 120.961V106.241H556.329C561.449 106.241 564.009 103.639 564.009 98.4334V92.1614H524.457C516.948 92.1614 511.444 90.284 507.945 86.5294C504.532 82.7747 502.825 77.9107 502.825 71.9374V26.2414H521.385V69.7614C521.385 74.8814 523.945 77.4414 529.065 77.4414H563.369V26.2414H582.569V100.737C582.569 106.796 580.82 111.66 577.321 115.329C573.822 119.084 568.361 120.961 560.937 120.961H517.673Z" fill="white"/>
</svg>
